<svg height="512pt" viewBox="0 0 512 512" width="512pt" xmlns="http://www.w3.org/2000/svg"><path d="m301.035156 0h-45.035156l-10.007812 15 10.007812 15h45.035156c99.785156 0 180.964844 81.179688 180.964844 180.964844l15.667969 18.035156 14.332031-18.035156c0-116.328125-94.636719-210.964844-210.964844-210.964844zm0 0" fill="#0051bf"/><path d="m210.964844 0c-116.328125 0-210.964844 94.636719-210.964844 210.964844l13.667969 11.367187 16.332031-11.367187c0-99.785156 81.179688-180.964844 180.964844-180.964844h45.035156v-30zm0 0" fill="#046eff"/><path d="m99.085938 346.464844h-99.085938v-135.5h130.496094zm0 0" fill="#0051bf"/><path d="m412.914062 346.464844h99.085938v-135.5h-130.496094zm0 0" fill="#00347b"/><path d="m256 60-20.015625 256.328125c74.65625-1.898437 180.816406-46.976563 191.929687-69.824219v-14.589844c0-94.792968-77.121093-171.914062-171.914062-171.914062zm0 0" fill="#ff7037"/><path d="m85.210938 212.3125c11.789062 34.6875 79.121093 98.859375 154.84375 103.734375 5.230468.339844 10.558593.417969 15.945312.28125v-256.328125c-88.164062 0-161.03125 66.71875-170.789062 152.3125zm0 0" fill="#ff9f22"/><path d="m427.914062 340.085938v-93.582032c-41.566406-6.519531-78.257812-27.738281-104.566406-58.183594-18.125 20.96875-41.175781 37.5625-67.347656 47.992188l-20.015625 99.421875 20.015625 176.265625c66.394531 0 124.117188-37.832031 152.746094-93.070312l-3.269532-14.652344 15.371094-15.347656c4.597656-15.488282 7.066406-31.882813 7.066406-48.84375zm0 0" fill="#ffcdbe"/><path d="m85.210938 212.3125c-.734376 6.4375-1.125 12.972656-1.125 19.601562v108.171876c0 94.792968 77.121093 171.914062 171.914062 171.914062v-275.6875c-19.917969 7.9375-41.644531 12.308594-64.390625 12.308594-40.074219 0-76.980469-13.546875-106.398437-36.308594zm0 0" fill="#ffeee5"/><path d="m282.5 388.925781v30h126.238281c4.933594-9.519531 8.996094-19.554687 12.097657-30zm0 0" fill="#0051bf"/><path d="m272.707031 373.632812h-16.707031l-20.015625 30.292969 20.015625 30.292969h16.707031c16.703125 0 30.292969-13.589844 30.292969-30.292969s-13.589844-30.292969-30.292969-30.292969zm0 0" fill="#00347b"/><path d="m239.292969 373.632812c-16.703125 0-30.292969 13.589844-30.292969 30.292969s13.589844 30.292969 30.292969 30.292969h16.707031v-60.585938zm0 0" fill="#0051bf"/></svg>